<svg t="1727076449582" class="icon" viewBox="0 0 1024 1024" version="1.1" xmlns="http://www.w3.org/2000/svg" p-id="7037"
    width="200" height="200">
    <path
        d="M448 544H96c-19.2 0-32 12.8-32 32v352c0 19.2 12.8 32 32 32h352c19.2 0 32-12.8 32-32V576c0-19.2-12.8-32-32-32z m0-480H96c-19.2 0-32 12.8-32 32v352c0 19.2 12.8 32 32 32h352c19.2 0 32-12.8 32-32V96c0-19.2-12.8-32-32-32z m480 0H576c-19.2 0-32 12.8-32 32v352c0 19.2 12.8 32 32 32h352c19.2 0 32-12.8 32-32V96c0-19.2-12.8-32-32-32z m0 480H576c-19.2 0-32 12.8-32 32v352c0 19.2 12.8 32 32 32h352c19.2 0 32-12.8 32-32V576c0-19.2-12.8-32-32-32z"
        fill="#bfbfbf" p-id="7038"></path>
</svg>